<svg width="800" height="400" viewBox="0 0 800 400" xmlns="http://www.w3.org/2000/svg"><defs><pattern id="satori_pattern_id_0" x="0" y="0" width="1" height="1" patternUnits="objectBoundingBox"><linearGradient id="satori_biid_0" x1="0" y1="0" x2="0" y2="1"><stop offset="0%" stop-color="#dbf4ff"/><stop offset="100%" stop-color="#fff1f1"/></linearGradient><rect x="0" y="0" width="800" height="400" fill="url(#satori_biid_0)"/></pattern></defs><mask id="satori_om-id"><rect x="0" y="0" width="800" height="400" fill="#fff"/></mask><rect x="0" y="0" width="800" height="400" fill="url(#satori_pattern_id_0)"/><clipPath id="satori_bct-id-0"><path d="M329.3 147.2L299.8 147.2L299.8 103.5L329.2 103.5L329.2 111.1L309.0 111.1L309.0 121.5L327.7 121.5L327.7 129.1L309.0 129.1L309.0 139.6L329.3 139.6L329.3 147.2ZM334.4 103.5L343.5 103.5L343.5 147.2L334.4 147.2L334.4 103.5ZM363.6 147.8L363.6 147.8Q358.6 147.8 354.9 145.7Q351.3 143.7 349.3 139.9Q347.4 136.1 347.4 130.9L347.4 130.9Q347.4 125.9 349.3 122.1Q351.3 118.3 354.9 116.1Q358.4 114.0 363.3 114.0L363.3 114.0Q366.5 114.0 369.3 115.0Q372.1 116.1 374.2 118.1Q376.3 120.2 377.5 123.3Q378.6 126.5 378.6 130.6L378.6 130.6L378.6 133.1L351.0 133.1L351.0 127.5L370.1 127.5Q370.1 125.5 369.2 124.0Q368.4 122.5 366.9 121.6Q365.4 120.8 363.4 120.8L363.4 120.8Q361.3 120.8 359.7 121.7Q358.2 122.7 357.3 124.3Q356.4 125.9 356.3 127.8L356.3 127.8L356.3 133.1Q356.3 135.6 357.3 137.3Q358.2 139.1 359.8 140.1Q361.5 141.0 363.8 141.0L363.8 141.0Q365.3 141.0 366.5 140.6Q367.8 140.2 368.7 139.3Q369.6 138.5 370.0 137.2L370.0 137.2L378.4 137.8Q377.8 140.8 375.8 143.1Q373.9 145.3 370.8 146.6Q367.7 147.8 363.6 147.8ZM397.3 147.8L397.3 147.8Q392.3 147.8 388.7 145.7Q385.1 143.5 383.2 139.7Q381.2 135.9 381.2 130.9L381.2 130.9Q381.2 125.9 383.2 122.1Q385.1 118.3 388.7 116.1Q392.3 114.0 397.3 114.0L397.3 114.0Q401.6 114.0 404.8 115.6Q408.0 117.1 409.9 119.9Q411.8 122.7 412.0 126.5L412.0 126.5L403.4 126.5Q403.0 124.1 401.5 122.6Q399.9 121.1 397.5 121.1L397.5 121.1Q395.3 121.1 393.8 122.2Q392.2 123.4 391.3 125.5Q390.5 127.7 390.5 130.8L390.5 130.8Q390.5 133.9 391.3 136.1Q392.2 138.3 393.8 139.5Q395.3 140.6 397.5 140.6L397.5 140.6Q399.0 140.6 400.3 140.0Q401.5 139.3 402.3 138.1Q403.1 136.9 403.4 135.2L403.4 135.2L412.0 135.2Q411.7 138.9 409.9 141.8Q408.1 144.6 404.9 146.2Q401.7 147.8 397.3 147.8ZM413.5 114.4L433.2 114.4L433.2 121.3L413.5 121.3L413.5 114.4ZM418.0 138.3L418.0 106.6L427.0 106.6L427.0 137.1Q427.0 138.4 427.4 139.1Q427.8 139.7 428.5 140.0Q429.2 140.3 430.1 140.3L430.1 140.3Q430.8 140.3 431.4 140.2Q432.0 140.1 432.4 140.0L432.4 140.0L433.8 146.8Q433.1 147.0 431.9 147.3Q430.6 147.5 428.9 147.6L428.9 147.6Q425.6 147.7 423.1 146.7Q420.7 145.7 419.3 143.6Q418.0 141.5 418.0 138.3L418.0 138.3ZM446.2 147.2L437.1 147.2L437.1 114.4L445.9 114.4L445.9 120.1L446.2 120.1Q447.1 117.1 449.3 115.5Q451.4 114.0 454.1 114.0L454.1 114.0Q454.8 114.0 455.6 114.0Q456.4 114.1 457.0 114.3L457.0 114.3L457.0 122.3Q456.3 122.1 455.2 122.0Q454.1 121.8 453.1 121.8L453.1 121.8Q451.1 121.8 449.6 122.7Q448.0 123.6 447.1 125.1Q446.2 126.6 446.2 128.6L446.2 128.6L446.2 147.2ZM468.7 147.2L459.6 147.2L459.6 114.4L468.7 114.4L468.7 147.2ZM464.2 110.2L464.2 110.2Q462.2 110.2 460.7 108.9Q459.3 107.5 459.3 105.6L459.3 105.6Q459.3 103.7 460.7 102.4Q462.2 101.0 464.2 101.0L464.2 101.0Q466.2 101.0 467.7 102.4Q469.1 103.7 469.1 105.6L469.1 105.6Q469.1 107.5 467.7 108.9Q466.2 110.2 464.2 110.2ZM488.7 147.8L488.7 147.8Q483.7 147.8 480.1 145.7Q476.5 143.5 474.6 139.7Q472.6 135.9 472.6 130.9L472.6 130.9Q472.6 125.9 474.6 122.1Q476.5 118.3 480.1 116.1Q483.7 114.0 488.7 114.0L488.7 114.0Q493.0 114.0 496.2 115.6Q499.4 117.1 501.3 119.9Q503.2 122.7 503.4 126.5L503.4 126.5L494.8 126.5Q494.4 124.1 492.9 122.6Q491.3 121.1 488.8 121.1L488.8 121.1Q486.7 121.1 485.2 122.2Q483.6 123.4 482.7 125.5Q481.9 127.7 481.9 130.8L481.9 130.8Q481.9 133.9 482.7 136.1Q483.6 138.3 485.2 139.5Q486.7 140.6 488.8 140.6L488.8 140.6Q490.4 140.6 491.6 140.0Q492.9 139.3 493.7 138.1Q494.5 136.9 494.8 135.2L494.8 135.2L503.4 135.2Q503.1 138.9 501.3 141.8Q499.5 144.6 496.3 146.2Q493.1 147.8 488.7 147.8Z "/></clipPath><defs><pattern id="satori_pattern_id-0_0" x="0" y="0" width="1" height="1" patternUnits="objectBoundingBox"><linearGradient id="satori_biid-0_0" x1="0" y1="0" x2="1" y2="0"><stop offset="0%" stop-color="rgb(0,124,240)"/><stop offset="100%" stop-color="rgb(0,223,216)"/></linearGradient><rect x="0" y="0" width="208" height="73" fill="url(#satori_biid-0_0)"/></pattern></defs><mask id="satori_om-id-0"><rect x="296" y="91" width="208" height="73" fill="#fff"/></mask><rect x="296" y="91" width="208" height="73" fill="url(#satori_pattern_id-0_0)" clip-path="url(#satori_bct-id-0)"/><clipPath id="satori_bct-id-1"><path d="M297.4 176.5L307.7 176.5L318.2 209.7L318.6 209.7L329.2 176.5L339.4 176.5L324.4 220.2L312.5 220.2L297.4 176.5ZM353.7 220.8L353.7 220.8Q348.6 220.8 345.0 218.7Q341.4 216.7 339.4 212.9Q337.4 209.1 337.4 203.9L337.4 203.9Q337.4 198.9 339.4 195.1Q341.4 191.3 344.9 189.1Q348.5 187.0 353.3 187.0L353.3 187.0Q356.6 187.0 359.4 188.0Q362.2 189.1 364.3 191.1Q366.4 193.2 367.5 196.3Q368.7 199.5 368.7 203.6L368.7 203.6L368.7 206.1L341.1 206.1L341.1 200.5L360.2 200.5Q360.2 198.5 359.3 197.0Q358.5 195.5 357.0 194.6Q355.4 193.8 353.5 193.8L353.5 193.8Q351.4 193.8 349.8 194.7Q348.2 195.7 347.3 197.3Q346.4 198.9 346.4 200.8L346.4 200.8L346.4 206.1Q346.4 208.6 347.3 210.3Q348.2 212.1 349.9 213.1Q351.5 214.0 353.8 214.0L353.8 214.0Q355.3 214.0 356.6 213.6Q357.9 213.2 358.8 212.3Q359.6 211.5 360.1 210.2L360.1 210.2L368.5 210.8Q367.9 213.8 365.9 216.1Q363.9 218.3 360.8 219.6Q357.7 220.8 353.7 220.8ZM381.7 201.2L381.7 201.2L381.7 220.2L372.6 220.2L372.6 176.5L381.4 176.5L381.4 193.2L381.8 193.2Q382.9 190.3 385.4 188.7Q387.9 187.0 391.6 187.0L391.6 187.0Q395.0 187.0 397.6 188.5Q400.1 190.0 401.5 192.7Q402.9 195.5 402.9 199.3L402.9 199.3L402.9 220.2L393.8 220.2L393.8 200.9Q393.9 197.9 392.3 196.2Q390.8 194.5 388.0 194.5L388.0 194.5Q386.2 194.5 384.7 195.3Q383.3 196.1 382.5 197.6Q381.7 199.1 381.7 201.2ZM417.2 220.2L408.1 220.2L408.1 187.4L417.2 187.4L417.2 220.2ZM412.6 183.2L412.6 183.2Q410.6 183.2 409.2 181.9Q407.7 180.5 407.7 178.6L407.7 178.6Q407.7 176.7 409.2 175.4Q410.6 174.0 412.6 174.0L412.6 174.0Q414.7 174.0 416.1 175.4Q417.5 176.7 417.5 178.6L417.5 178.6Q417.5 180.5 416.1 181.9Q414.7 183.2 412.6 183.2ZM437.2 220.8L437.2 220.8Q432.2 220.8 428.6 218.7Q424.9 216.5 423.0 212.7Q421.1 208.9 421.1 203.9L421.1 203.9Q421.1 198.9 423.0 195.1Q425.0 191.3 428.6 189.1Q432.2 187.0 437.1 187.0L437.1 187.0Q441.4 187.0 444.6 188.6Q447.9 190.1 449.7 192.9Q451.6 195.7 451.8 199.5L451.8 199.5L443.2 199.5Q442.9 197.1 441.3 195.6Q439.8 194.1 437.3 194.1L437.3 194.1Q435.2 194.1 433.6 195.2Q432.1 196.4 431.2 198.5Q430.3 200.7 430.3 203.8L430.3 203.8Q430.3 206.9 431.2 209.1Q432.0 211.3 433.6 212.5Q435.2 213.6 437.3 213.6L437.3 213.6Q438.9 213.6 440.1 213.0Q441.3 212.3 442.2 211.1Q443.0 209.9 443.2 208.2L443.2 208.2L451.8 208.2Q451.6 211.9 449.8 214.8Q448.0 217.6 444.8 219.2Q441.6 220.8 437.2 220.8ZM455.6 176.5L464.7 176.5L464.7 220.2L455.6 220.2L455.6 176.5ZM484.9 220.8L484.9 220.8Q479.8 220.8 476.2 218.7Q472.6 216.7 470.6 212.9Q468.6 209.1 468.6 203.9L468.6 203.9Q468.6 198.9 470.6 195.1Q472.6 191.3 476.1 189.1Q479.7 187.0 484.5 187.0L484.5 187.0Q487.8 187.0 490.6 188.0Q493.4 189.1 495.5 191.1Q497.6 193.2 498.7 196.3Q499.9 199.5 499.9 203.6L499.9 203.6L499.9 206.1L472.3 206.1L472.3 200.5L491.4 200.5Q491.4 198.5 490.5 197.0Q489.7 195.5 488.2 194.6Q486.6 193.8 484.7 193.8L484.7 193.8Q482.6 193.8 481.0 194.7Q479.4 195.7 478.5 197.3Q477.6 198.9 477.6 200.8L477.6 200.8L477.6 206.1Q477.6 208.6 478.5 210.3Q479.4 212.1 481.1 213.1Q482.8 214.0 485.0 214.0L485.0 214.0Q486.5 214.0 487.8 213.6Q489.1 213.2 490.0 212.3Q490.8 211.5 491.3 210.2L491.3 210.2L499.7 210.8Q499.1 213.8 497.1 216.1Q495.1 218.3 492.0 219.6Q488.9 220.8 484.9 220.8Z "/></clipPath><defs><pattern id="satori_pattern_id-1_0" x="0" y="0" width="1" height="1" patternUnits="objectBoundingBox"><linearGradient id="satori_biid-1_0" x1="0" y1="0" x2="1" y2="0"><stop offset="0%" stop-color="rgb(121,40,202)"/><stop offset="100%" stop-color="rgb(255,0,128)"/></linearGradient><rect x="0" y="0" width="208" height="72" fill="url(#satori_biid-1_0)"/></pattern></defs><mask id="satori_om-id-1"><rect x="296" y="164" width="208" height="72" fill="#fff"/></mask><rect x="296" y="164" width="208" height="72" fill="url(#satori_pattern_id-1_0)" clip-path="url(#satori_bct-id-1)"/><clipPath id="satori_bct-id-2"><path d="M299.3 258.5L288.3 292.2L278.4 292.2L293.5 248.5L305.4 248.5L320.4 292.2L310.5 292.2L299.6 258.5L299.3 258.5ZM287.7 282.2L287.7 275.0L311.0 275.0L311.0 282.2L287.7 282.2ZM332.6 273.2L332.6 273.2L332.6 292.2L323.5 292.2L323.5 259.4L332.1 259.4L332.1 265.2L332.5 265.2Q333.6 262.4 336.2 260.7Q338.7 259.0 342.4 259.0L342.4 259.0Q345.8 259.0 348.3 260.5Q350.9 262.0 352.3 264.7Q353.7 267.5 353.7 271.3L353.7 271.3L353.7 292.2L344.6 292.2L344.6 272.9Q344.6 269.9 343.1 268.2Q341.5 266.5 338.8 266.5L338.8 266.5Q336.9 266.5 335.5 267.3Q334.1 268.1 333.4 269.6Q332.6 271.1 332.6 273.2ZM386.0 268.8L386.0 268.8L377.7 269.3Q377.5 268.2 376.8 267.3Q376.1 266.5 375.0 266.0Q373.8 265.4 372.2 265.4L372.2 265.4Q370.1 265.4 368.7 266.3Q367.2 267.2 367.2 268.7L367.2 268.7Q367.2 269.9 368.2 270.7Q369.1 271.5 371.4 272.0L371.4 272.0L377.3 273.2Q382.1 274.1 384.4 276.3Q386.8 278.5 386.8 282.0L386.8 282.0Q386.8 285.2 384.9 287.7Q383.0 290.1 379.7 291.4Q376.5 292.8 372.2 292.8L372.2 292.8Q365.7 292.8 361.9 290.1Q358.0 287.4 357.4 282.7L357.4 282.7L366.3 282.2Q366.7 284.2 368.2 285.2Q369.8 286.3 372.2 286.3L372.2 286.3Q374.6 286.3 376.1 285.3Q377.5 284.4 377.6 282.9L377.6 282.9Q377.5 281.7 376.5 280.9Q375.5 280.1 373.4 279.7L373.4 279.7L367.7 278.5Q362.9 277.6 360.6 275.2Q358.2 272.9 358.2 269.2L358.2 269.2Q358.2 266.0 359.9 263.8Q361.7 261.5 364.8 260.2Q367.9 259.0 372.1 259.0L372.1 259.0Q378.3 259.0 381.9 261.6Q385.4 264.2 386.0 268.8ZM406.6 292.2L397.0 292.2L388.1 259.4L397.2 259.4L402.3 281.4L402.6 281.4L407.9 259.4L416.9 259.4L422.3 281.3L422.6 281.3L427.5 259.4L436.7 259.4L427.8 292.2L418.2 292.2L412.6 271.6L412.2 271.6L406.6 292.2ZM453.6 292.8L453.6 292.8Q448.6 292.8 444.9 290.7Q441.3 288.7 439.3 284.9Q437.4 281.1 437.4 275.9L437.4 275.9Q437.4 270.9 439.3 267.1Q441.3 263.3 444.9 261.1Q448.4 259.0 453.3 259.0L453.3 259.0Q456.5 259.0 459.3 260.0Q462.1 261.1 464.2 263.1Q466.3 265.2 467.5 268.3Q468.6 271.5 468.6 275.6L468.6 275.6L468.6 278.1L441.0 278.1L441.0 272.5L460.1 272.5Q460.1 270.5 459.2 269.0Q458.4 267.5 456.9 266.6Q455.4 265.8 453.4 265.8L453.4 265.8Q451.3 265.8 449.8 266.7Q448.2 267.7 447.3 269.3Q446.4 270.9 446.4 272.8L446.4 272.8L446.4 278.1Q446.4 280.6 447.3 282.3Q448.2 284.1 449.8 285.1Q451.5 286.0 453.8 286.0L453.8 286.0Q455.3 286.0 456.5 285.6Q457.8 285.2 458.7 284.3Q459.6 283.5 460.1 282.2L460.1 282.2L468.5 282.8Q467.8 285.8 465.8 288.1Q463.9 290.3 460.8 291.6Q457.7 292.8 453.6 292.8ZM481.6 292.2L472.6 292.2L472.6 259.4L481.4 259.4L481.4 265.1L481.7 265.1Q482.6 262.1 484.7 260.5Q486.8 259.0 489.6 259.0L489.6 259.0Q490.3 259.0 491.0 259.0Q491.8 259.1 492.4 259.3L492.4 259.3L492.4 267.3Q491.8 267.1 490.7 267.0Q489.5 266.8 488.6 266.8L488.6 266.8Q486.6 266.8 485.0 267.7Q483.5 268.6 482.6 270.1Q481.6 271.6 481.6 273.6L481.6 273.6L481.6 292.2ZM522.3 268.8L522.3 268.8L514.0 269.3Q513.8 268.2 513.1 267.3Q512.4 266.5 511.3 266.0Q510.1 265.4 508.5 265.4L508.5 265.4Q506.4 265.4 505.0 266.3Q503.5 267.2 503.5 268.7L503.5 268.7Q503.5 269.9 504.5 270.7Q505.4 271.5 507.7 272.0L507.7 272.0L513.6 273.2Q518.4 274.1 520.7 276.3Q523.1 278.5 523.1 282.0L523.1 282.0Q523.1 285.2 521.2 287.7Q519.3 290.1 516.0 291.4Q512.8 292.8 508.5 292.8L508.5 292.8Q502.0 292.8 498.1 290.1Q494.3 287.4 493.6 282.7L493.6 282.7L502.6 282.2Q503.0 284.2 504.5 285.2Q506.1 286.3 508.5 286.3L508.5 286.3Q510.9 286.3 512.4 285.3Q513.8 284.4 513.8 282.9L513.8 282.9Q513.8 281.7 512.8 280.9Q511.8 280.1 509.6 279.7L509.6 279.7L504.0 278.5Q499.2 277.6 496.9 275.2Q494.5 272.9 494.5 269.2L494.5 269.2Q494.5 266.0 496.2 263.8Q497.9 261.5 501.1 260.2Q504.2 259.0 508.4 259.0L508.4 259.0Q514.6 259.0 518.2 261.6Q521.7 264.2 522.3 268.8Z "/></clipPath><defs><pattern id="satori_pattern_id-2_0" x="0" y="0" width="1" height="1" patternUnits="objectBoundingBox"><linearGradient id="satori_biid-2_0" x1="0" y1="0" x2="1" y2="0"><stop offset="0%" stop-color="rgb(255,77,77)"/><stop offset="100%" stop-color="rgb(249,203,40)"/></linearGradient><rect x="0" y="0" width="247" height="73" fill="url(#satori_biid-2_0)"/></pattern></defs><mask id="satori_om-id-2"><rect x="277" y="236" width="247" height="73" fill="#fff"/></mask><rect x="277" y="236" width="247" height="73" fill="url(#satori_pattern_id-2_0)" clip-path="url(#satori_bct-id-2)"/></svg>